<?xml version="1.0" encoding="iso-8859-1"?>
<!-- Generator: Adobe Illustrator 19.0.0, SVG Export Plug-In . SVG Version: 6.00 Build 0)  -->
<svg version="1.1" id="Capa_1" xmlns="http://www.w3.org/2000/svg" xmlns:xlink="http://www.w3.org/1999/xlink" x="0px" y="0px"
	 viewBox="0 0 512 512" style="enable-background:new 0 0 512 512;" xml:space="preserve">
<path style="fill:#C27B48;" d="M404.673,353.128c0.48,4.66,0.71,9.36,0.71,14.089c0,6.73-0.47,13.389-1.4,19.939
	c-4.34,30.669-18.659,59.077-41.408,81.516c-8.89,8.78-18.699,16.309-29.239,22.509c-13.929,8.21-29.109,14.089-45.058,17.469
	c-4.94,1.05-9.96,1.85-15.039,2.41c-5.04,0.55-10.14,0.87-15.279,0.93c-0.64,0.01-1.28,0.01-1.92,0.01c-0.72,0-1.44-0.01-2.16-0.02
	c-3.57-0.05-7.12-0.22-10.639-0.51c-5.51-0.44-10.959-1.18-16.319-2.21c-15.719-3-30.719-8.44-44.558-16.099c0,0,0,0-0.01-0.01
	c-12.949-7.18-24.869-16.329-35.408-27.269c-21.269-22.069-34.668-49.368-38.878-78.586c-1.13-7.72-1.6-15.579-1.41-23.509
	c0.08-3.55,0.3-7.09,0.66-10.609c2.29-23.079,10.27-45.288,23.349-64.777c3.8-5.67,6.53-11.779,8.18-18.059
	c2.53-9.64,2.53-19.679,0-29.169c-1.59-5.95-4.17-11.669-7.75-16.939c-13.359-19.679-21.459-42.048-23.779-65.387
	c-0.47-4.65-0.7-9.35-0.7-14.069c0-6.76,0.48-13.459,1.41-20.049c4.36-30.619,18.679-58.987,41.398-81.396
	c10.519-10.379,22.319-19.019,35.078-25.789c13.279-7.04,27.599-12.049,42.548-14.869c5.32-1.01,10.719-1.73,16.189-2.17
	c4.86-0.39,9.77-0.56,14.719-0.49h0.16c5.09,0.07,10.14,0.38,15.119,0.93c5.04,0.57,10.02,1.37,14.929,2.41
	c15.189,3.23,29.669,8.75,43.048,16.369c12.339,7.05,23.739,15.889,33.848,26.389c21.299,22.119,34.708,49.478,38.898,78.746
	c1.1,7.68,1.57,15.479,1.38,23.349c-0.09,3.58-0.31,7.15-0.67,10.699c-2.31,23.049-10.28,45.228-23.339,64.687
	c-3.68,5.48-6.35,11.369-8.01,17.439c-2.72,9.9-2.76,20.249-0.11,29.999c1.59,5.87,4.15,11.519,7.69,16.729
	C394.253,307.44,402.353,329.799,404.673,353.128z"/>
<g>
	<path style="fill:#A66235;" d="M404.673,353.128c0.48,4.66,0.71,9.36,0.71,14.089c0,6.73-0.47,13.389-1.4,19.939
		c-4.34,30.669-18.659,59.077-41.408,81.516c-8.89,8.78-18.699,16.309-29.239,22.509c-13.929,8.21-29.109,14.089-45.058,17.469
		c-4.94,1.05-9.96,1.85-15.039,2.41c-5.04,0.55-10.14,0.87-15.279,0.93V0.015h0.16c5.09,0.07,10.14,0.38,15.119,0.93
		c5.04,0.57,10.02,1.37,14.929,2.41c15.189,3.23,29.669,8.75,43.048,16.369c12.339,7.05,23.739,15.889,33.848,26.389
		c21.299,22.119,34.708,49.478,38.898,78.746c1.1,7.68,1.57,15.479,1.38,23.349c-0.09,3.58-0.31,7.15-0.67,10.699
		c-2.31,23.049-10.28,45.228-23.339,64.687c-3.68,5.48-6.35,11.369-8.01,17.439c-2.72,9.9-2.76,20.249-0.11,29.999
		c1.59,5.87,4.15,11.519,7.69,16.729C394.253,307.44,402.353,329.799,404.673,353.128z"/>
	<path style="fill:#A66235;" d="M351.756,376.017c-2.64-30.569-9.77-57.507-15.349-78.566c-0.77-2.91-1.5-5.69-2.19-8.32
		c-1.64-6.34-2.83-12.349-3.6-18.099h42.598c-2.65-9.75-2.61-20.099,0.11-29.999h-42.448c0.53-2.93,1.22-5.77,2.08-8.52
		c10.43-33.518,16.389-65.987,17.819-96.825c18.299,5.93,36.278,13.669,53.897,23.219c0.36-3.55,0.58-7.12,0.67-10.699
		c0.19-7.87-0.28-15.669-1.38-23.349c-17.379-8.39-35.188-15.229-53.327-20.499c-1.44-24.839-6.05-48.418-13.759-70.227
		c-1.8-5.1-3.7-9.9-5.66-14.409c-13.379-7.62-27.859-13.139-43.048-16.369c6.48,9.46,14.549,23.609,21.049,42.548
		c5.48,15.989,9.04,33.098,10.709,51.088c-7.95-1.5-15.949-2.72-23.989-3.63c-7.53-0.86-15.099-1.44-22.699-1.78V0.945
		c-4.98-0.55-10.03-0.86-15.119-0.93h-0.16c-4.95-0.07-9.86,0.1-14.719,0.49v91.046c-16.099,0.71-32.268,2.56-48.418,5.54
		c1.66-18.029,5.23-35.168,10.719-51.187c6.65-19.389,14.959-33.778,21.509-43.228c-14.949,2.82-29.269,7.83-42.548,14.869
		c-2.29,5.13-4.53,10.659-6.62,16.589c-7.69,21.739-12.289,45.238-13.739,69.987c-24.289,6.68-43.508,14.659-56.117,20.609
		c-0.93,6.59-1.41,13.289-1.41,20.049c0,4.72,0.23,9.42,0.7,14.069c3.69-2.12,24.559-13.699,56.657-23.429
		c1.4,30.908,7.37,63.477,17.829,97.095c0.86,2.75,1.55,5.59,2.08,8.52h-45.038v0.14c2.53,9.49,2.53,19.529,0,29.169v0.69h45.298
		c-0.77,5.75-1.97,11.759-3.6,18.099c-0.69,2.64-1.42,5.41-2.19,8.32c-5.6,21.129-12.749,48.178-15.369,78.856
		c-31.518-9.67-51.997-21.019-55.667-23.129c-0.36,3.52-0.58,7.06-0.66,10.609c-0.19,7.93,0.28,15.789,1.41,23.509
		c12.249,5.79,30.729,13.479,54.007,20.029c0.93,30.888,7.72,59.587,20.279,85.826c0.01,0.01,0.01,0.01,0.01,0.01
		c13.839,7.66,28.839,13.099,44.558,16.099c-23.089-31.158-32.448-63.767-34.568-94.785c16.969,3.25,33.968,5.25,50.888,5.99v91.006
		c3.52,0.29,7.07,0.46,10.639,0.51c0.72,0.01,1.44,0.02,2.16,0.02c0.64,0,1.28,0,1.92-0.01c5.14-0.06,10.239-0.38,15.279-0.93
		v-90.596c7.6-0.34,15.169-0.93,22.699-1.79c8.88-1.01,17.699-2.41,26.469-4.14c-2.12,30.798-11.379,63.167-34.128,94.115
		c15.949-3.38,31.128-9.26,45.058-17.469c11.999-25.779,18.489-53.907,19.359-84.116c17.439-5.19,34.558-11.829,51.288-19.909
		c0.93-6.55,1.4-13.209,1.4-19.939c0-4.73-0.23-9.43-0.71-14.089C387.364,362.498,369.715,370.127,351.756,376.017z
		 M243.241,390.506c-14.929-0.75-29.999-2.56-45.198-5.47c-1.9-0.37-3.78-0.75-5.64-1.14c2.04-29.988,9.27-57.307,14.949-78.766
		c0.78-2.97,1.53-5.8,2.23-8.49c2.31-8.93,3.9-17.449,4.79-25.609h28.869L243.241,390.506L243.241,390.506z M243.241,241.034
		h-28.999c-0.79-6.01-2.04-11.819-3.79-17.439c-10.379-33.328-15.929-65.537-16.639-95.755c1.4-0.29,2.8-0.57,4.23-0.85
		c15.199-2.91,30.269-4.72,45.198-5.46V241.034z M273.239,121.489c16.099,0.77,32.008,2.85,47.708,6.2
		c-0.7,30.269-6.24,62.517-16.639,95.905c-1.75,5.62-3,11.429-3.79,17.439h-27.279V121.489z M273.239,390.546V271.032h27.149
		c0.89,8.16,2.48,16.679,4.79,25.609c0.7,2.69,1.44,5.52,2.23,8.49c5.69,21.489,12.939,48.858,14.959,78.906
		C306.208,387.566,289.829,389.746,273.239,390.546z"/>
</g>
<path style="fill:#805142;" d="M351.756,376.017c-2.64-30.569-9.77-57.507-15.349-78.566c-0.77-2.91-1.5-5.69-2.19-8.32
	c-1.64-6.34-2.83-12.349-3.6-18.099h42.598c-2.65-9.75-2.61-20.099,0.11-29.999h-42.448c0.53-2.93,1.22-5.77,2.08-8.52
	c10.43-33.518,16.389-65.987,17.819-96.825c18.299,5.93,36.278,13.669,53.897,23.219c0.36-3.55,0.58-7.12,0.67-10.699
	c0.19-7.87-0.28-15.669-1.38-23.349c-17.379-8.39-35.188-15.229-53.327-20.499c-1.44-24.839-6.05-48.418-13.759-70.227
	c-1.8-5.1-3.7-9.9-5.66-14.409c-13.379-7.62-27.859-13.139-43.048-16.369c6.48,9.46,14.549,23.609,21.049,42.548
	c5.48,15.989,9.04,33.098,10.709,51.088c-7.95-1.5-15.949-2.72-23.989-3.63c-7.53-0.86-15.099-1.44-22.699-1.78V0.945
	c-4.98-0.55-10.03-0.86-15.119-0.93h-0.16V511.99c5.14-0.06,10.239-0.38,15.279-0.93v-90.596c7.6-0.34,15.169-0.93,22.699-1.79
	c8.88-1.01,17.699-2.41,26.469-4.14c-2.12,30.798-11.379,63.167-34.128,94.115c15.949-3.38,31.128-9.26,45.058-17.469
	c11.999-25.779,18.489-53.907,19.359-84.116c17.439-5.19,34.558-11.829,51.288-19.909c0.93-6.55,1.4-13.209,1.4-19.939
	c0-4.73-0.23-9.43-0.71-14.089C387.364,362.498,369.715,370.127,351.756,376.017z M273.239,121.489
	c16.099,0.77,32.008,2.85,47.708,6.2c-0.7,30.269-6.24,62.517-16.639,95.905c-1.75,5.62-3,11.429-3.79,17.439h-27.279V121.489z
	 M273.239,390.546V271.032h27.149c0.89,8.16,2.48,16.679,4.79,25.609c0.7,2.69,1.44,5.52,2.23,8.49
	c5.69,21.489,12.939,48.858,14.959,78.906C306.208,387.566,289.829,389.746,273.239,390.546z"/>
<g>
</g>
<g>
</g>
<g>
</g>
<g>
</g>
<g>
</g>
<g>
</g>
<g>
</g>
<g>
</g>
<g>
</g>
<g>
</g>
<g>
</g>
<g>
</g>
<g>
</g>
<g>
</g>
<g>
</g>
</svg>
