<?xml version="1.0" encoding="iso-8859-1"?>
<!-- Generator: Adobe Illustrator 19.0.0, SVG Export Plug-In . SVG Version: 6.00 Build 0)  -->
<svg version="1.1" id="Capa_1" xmlns="http://www.w3.org/2000/svg" xmlns:xlink="http://www.w3.org/1999/xlink" x="0px" y="0px"
	 viewBox="0 0 512 512" style="enable-background:new 0 0 512 512;" xml:space="preserve">
<path style="fill:#11A892;" d="M512,255.995c0,57.9-47.1,105-105,105H105v-209.99h302C464.9,151.005,512,198.105,512,255.995z"/>
<path style="fill:#0F9887;" d="M512,255.995c0,57.9-47.1,105-105,105H105v-105H512z"/>
<path style="fill:#BDF052;" d="M194.99,255.995c0,49.71-40.29,90-89.99,90c-49.71,0-90-40.29-90-90c0-49.7,40.29-89.99,90-89.99
	C154.7,166.005,194.99,206.295,194.99,255.995z"/>
<path style="fill:#92D700;" d="M194.99,255.995c0,49.71-40.29,90-89.99,90c-49.71,0-90-40.29-90-90H194.99z"/>
<rect x="194.99" y="209.97" style="fill:#60DD4E;" width="116.01" height="30"/>
<g>
	<rect x="368.67" y="269.2" style="fill:#2DD729;" width="116.01" height="30"/>
	<rect x="297" y="269.2" style="fill:#2DD729;" width="42.33" height="30"/>
</g>
<g>
	<rect x="339.33" y="209.97" style="fill:#60DD4E;" width="37.33" height="30"/>
	<path style="fill:#60DD4E;" d="M105,151.005c-57.9,0-105,47.1-105,104.99c0,57.9,47.1,105,105,105c57.89,0,104.99-47.1,104.99-105
		C209.99,198.105,162.89,151.005,105,151.005z M105,330.995c-41.36,0-75-33.64-75-75c0-41.35,33.64-74.99,75-74.99
		c41.35,0,74.99,33.64,74.99,74.99C179.99,297.355,146.35,330.995,105,330.995z"/>
</g>
<g>
	<rect x="89.996" y="207.64" style="fill:#11A892;" width="30" height="27"/>
	<polygon style="fill:#11A892;" points="155.62,255.325 153.56,255.995 129.94,263.665 127.45,255.995 120.67,235.135 
		146.35,226.795 	"/>
</g>
<g>
	
		<rect x="111.977" y="269.216" transform="matrix(-0.5876 -0.8092 0.8092 -0.5876 -30.7738 552.7477)" style="fill:#0F9887;" width="27.001" height="30.001"/>
	
		<rect x="69.491" y="270.693" transform="matrix(-0.8088 -0.5881 0.5881 -0.8088 -14.305 563.7357)" style="fill:#0F9887;" width="30" height="27"/>
</g>
<polygon style="fill:#11A892;" points="89.33,235.125 82.54,255.995 80.05,263.655 56.52,255.995 54.37,255.295 63.66,226.765 "/>
<g>
	<polygon style="fill:#0F9887;" points="80.05,263.655 56.52,255.995 82.54,255.995 	"/>
	<polygon style="fill:#0F9887;" points="129.94,263.665 127.45,255.995 153.56,255.995 	"/>
</g>
<path style="fill:#2DD729;" d="M209.99,255.995c0,57.9-47.1,105-104.99,105c-57.9,0-105-47.1-105-105h30c0,41.36,33.64,75,75,75
	c41.35,0,74.99-33.64,74.99-75H209.99z"/>
<g>
</g>
<g>
</g>
<g>
</g>
<g>
</g>
<g>
</g>
<g>
</g>
<g>
</g>
<g>
</g>
<g>
</g>
<g>
</g>
<g>
</g>
<g>
</g>
<g>
</g>
<g>
</g>
<g>
</g>
</svg>
