<?xml version="1.0" encoding="iso-8859-1"?>
<!-- Generator: Adobe Illustrator 19.0.0, SVG Export Plug-In . SVG Version: 6.00 Build 0)  -->
<svg version="1.1" id="Capa_1" xmlns="http://www.w3.org/2000/svg" xmlns:xlink="http://www.w3.org/1999/xlink" x="0px" y="0px"
	 viewBox="0 0 512 512" style="enable-background:new 0 0 512 512;" xml:space="preserve">
<path style="fill:#FF475A;" d="M256.021,512C86.219,512-11.156,319.571,85.739,182.905c20.436-28.812,47.377-51.68,78.711-66.972
	c-14.181-21.126-16.843-40.852-19.535-57.575c20.426-11.639,41.652-19.465,66.812-11.979c4.343-15.782,14.661-35.457,39.09-44.574
	c3.122-1.171,4.233-1.761,5.204-1.801c1.081-0.06,1.982,0.56,5.304,1.801c24.419,9.127,34.707,28.802,39.03,44.584
	c25.65-7.606,47.046,0.771,66.772,12.019c-2.692,16.713-5.434,36.528-19.535,57.535c31.334,15.282,58.285,38.149,78.711,66.962
	C522.997,319.291,426.102,512,256.021,512z"/>
<path style="fill:#E5104D;" d="M256.021,512V0.004c1.081-0.06,1.982,0.56,5.304,1.801c24.419,9.127,34.707,28.802,39.03,44.584
	c25.65-7.606,47.046,0.771,66.772,12.019c-2.692,16.713-5.434,36.528-19.535,57.535c31.334,15.282,58.285,38.149,78.711,66.962
	C522.997,319.291,426.102,512,256.021,512z"/>
<path style="fill:#FFA7B8;" d="M424.3,303.17c0,92.782-75.488,168.27-168.28,168.27s-168.28-75.488-168.28-168.27
	c0-92.792,75.488-168.28,168.28-168.28S424.3,210.379,424.3,303.17z"/>
<path style="fill:#FF728E;" d="M424.3,303.17c0,92.782-75.488,168.27-168.28,168.27V134.89
	C348.812,134.89,424.3,210.379,424.3,303.17z"/>
<g>
	<rect x="119.752" y="322.7" style="fill:#A66235;" width="30.023" height="30.023"/>
	<rect x="172.453" y="392.814" style="fill:#A66235;" width="30.023" height="30.023"/>
</g>
<rect x="280.036" y="356.786" style="fill:#805142;" width="30.023" height="30.023"/>
<rect x="241.006" y="421.786" style="fill:#A66235;" width="30.023" height="30.023"/>
<rect x="343.755" y="377.802" style="fill:#805142;" width="30.023" height="30.023"/>
<g>
	<rect x="174.955" y="286.341" style="fill:#A66235;" width="30.023" height="30.023"/>
	<rect x="210.482" y="229.337" style="fill:#A66235;" width="30.023" height="30.023"/>
</g>
<g>
	<rect x="278.115" y="238.464" style="fill:#805142;" width="30.023" height="30.023"/>
	<rect x="271.029" y="292.676" style="fill:#805142;" width="30.023" height="30.023"/>
</g>
<rect x="210.482" y="341.774" style="fill:#A66235;" width="30.023" height="30.023"/>
<g>
	<rect x="339.422" y="307.688" style="fill:#805142;" width="30.023" height="30.023"/>
	<rect x="363.441" y="241.307" style="fill:#805142;" width="30.023" height="30.023"/>
	<rect x="320.067" y="183.202" style="fill:#805142;" width="30.023" height="30.023"/>
</g>
<g>
	<rect x="123.915" y="238.464" style="fill:#A66235;" width="30.023" height="30.023"/>
	<rect x="177.297" y="183.202" style="fill:#A66235;" width="30.023" height="30.023"/>
	<rect x="245.009" y="159.563" style="fill:#A66235;" width="30.023" height="30.023"/>
</g>
<g>
	<rect x="256.018" y="421.786" style="fill:#805142;" width="15.012" height="30.023"/>
	<rect x="256.018" y="159.563" style="fill:#805142;" width="19.015" height="30.023"/>
</g>
<g>
</g>
<g>
</g>
<g>
</g>
<g>
</g>
<g>
</g>
<g>
</g>
<g>
</g>
<g>
</g>
<g>
</g>
<g>
</g>
<g>
</g>
<g>
</g>
<g>
</g>
<g>
</g>
<g>
</g>
</svg>
