<?xml version="1.0" encoding="iso-8859-1"?>
<!-- Generator: Adobe Illustrator 19.0.0, SVG Export Plug-In . SVG Version: 6.00 Build 0)  -->
<svg version="1.1" id="Capa_1" xmlns="http://www.w3.org/2000/svg" xmlns:xlink="http://www.w3.org/1999/xlink" x="0px" y="0px"
	 viewBox="0 0 512 512" style="enable-background:new 0 0 512 512;" xml:space="preserve">
<path style="fill:#C27B48;" d="M456.928,311.072c0,14.276-1.511,28.561-4.492,42.457c-1.05,4.872-2.281,9.714-3.711,14.496
	c-6.623,22.379-17.197,43.607-31.122,62.434c-2.161,2.941-4.422,5.822-6.753,8.643c-4.102,4.952-8.433,9.704-12.975,14.226
	c-17.647,17.597-38.485,31.842-61.274,41.846c-2.131,0.94-4.292,1.841-6.463,2.701c-9.604,3.811-19.428,6.863-29.421,9.134
	C286.132,510.329,271.186,512,256,512s-30.132-1.671-44.717-4.992c-9.994-2.271-19.818-5.322-29.421-9.134
	c-2.171-0.86-4.332-1.761-6.463-2.701c-22.789-10.004-43.617-24.239-61.274-41.846c-4.552-4.522-8.883-9.274-12.985-14.236
	c-2.331-2.811-4.582-5.692-6.743-8.633c-13.925-18.817-24.5-40.056-31.132-62.424c-1.411-4.782-2.641-9.624-3.691-14.496
	c-2.991-13.905-4.502-28.191-4.502-42.467c0-0.41,0-0.83,0.01-1.25c0.03-2.191,0.13-4.422,0.3-6.703
	c1.511-19.928,8.583-43.177,21.088-69.287c0.73-1.551,1.501-3.121,2.281-4.692c2.071-4.192,4.222-8.343,6.382-12.325
	c4.752-8.823,10.114-18.007,16.026-27.511c8.003-12.845,17.037-26.28,27.041-40.186c1.711-2.391,3.461-4.792,5.232-7.203
	c4.082-5.562,8.313-11.194,12.695-16.887c12.605-16.446,26.38-33.403,41.116-50.6c0.38-0.45,0.77-0.9,1.15-1.341
	c7.053-8.223,13.765-15.846,19.928-22.729c21.318-23.789,36.234-38.835,37.034-39.645L256,0l10.644,10.714
	c0.81,0.81,15.886,16.016,37.385,40.046c6.172,6.893,12.875,14.516,19.928,22.729c0.37,0.43,0.74,0.86,1.11,1.301
	c14.636,17.107,28.301,33.933,40.806,50.23c4.382,5.702,8.613,11.334,12.695,16.897c1.771,2.411,3.521,4.812,5.232,7.203
	c9.714,13.515,18.527,26.58,26.36,39.095c6.182,9.904,11.775,19.468,16.727,28.641c2.131,3.932,4.132,7.773,5.942,11.424
	c0.93,1.861,1.831,3.711,2.701,5.542c12.505,26.11,19.578,49.369,21.088,69.297c0.17,2.281,0.27,4.522,0.3,6.723
	C456.928,310.261,456.928,310.671,456.928,311.072z"/>
<g>
	<path style="fill:#A66235;" d="M456.928,311.072c0,14.276-1.511,28.561-4.492,42.457c-1.05,4.872-2.281,9.714-3.711,14.496
		c-6.623,22.379-17.197,43.607-31.122,62.434c-2.161,2.941-4.422,5.822-6.753,8.643c-4.102,4.952-8.433,9.704-12.975,14.226
		c-17.647,17.597-38.485,31.842-61.274,41.846c-2.131,0.94-4.292,1.841-6.463,2.701c-9.604,3.811-19.428,6.863-29.421,9.134
		C286.132,510.329,271.186,512,256,512V0l10.644,10.714c0.81,0.81,15.886,16.016,37.385,40.046
		c6.172,6.893,12.875,14.516,19.928,22.729c0.37,0.43,0.74,0.86,1.11,1.301c14.636,17.107,28.301,33.933,40.806,50.23
		c4.382,5.702,8.613,11.334,12.695,16.897c1.771,2.411,3.521,4.812,5.232,7.203c9.714,13.515,18.527,26.58,26.36,39.095
		c6.182,9.904,11.775,19.468,16.727,28.641c2.131,3.932,4.132,7.773,5.942,11.424c0.93,1.861,1.831,3.711,2.701,5.542
		c12.505,26.11,19.578,49.369,21.088,69.297c0.17,2.281,0.27,4.522,0.3,6.723C456.928,310.261,456.928,310.671,456.928,311.072z"/>
	<path style="fill:#A66235;" d="M456.918,309.841c-0.03-2.201-0.13-4.442-0.3-6.723l-24.86,16.977l-61.274-41.846l65.045-44.427
		c-0.87-1.831-1.771-3.681-2.701-5.542c-1.811-3.651-3.811-7.493-5.942-11.424c-4.952-9.174-10.544-18.737-16.727-28.641
		l-41.796-28.551l15.436-10.544c-1.711-2.391-3.461-4.792-5.232-7.203c-4.082-5.562-8.313-11.194-12.695-16.897l-24.119,16.476
		l-58.683-40.086l40.886-27.921c-7.053-8.213-13.755-15.836-19.928-22.729L256.46,83.243l-0.46-0.31L208.321,50.36
		c-6.162,6.883-12.875,14.506-19.928,22.729l41.466,28.321l-59.153,40.406l-24.58-16.787c-4.382,5.692-8.613,11.324-12.695,16.887
		c-1.771,2.411-3.521,4.812-5.232,7.203l15.896,10.864l-42.937,29.321c-5.912,9.504-11.274,18.687-16.026,27.511
		c-2.161,3.982-4.312,8.133-6.382,12.325c-0.78,1.571-1.551,3.141-2.281,4.692l65.045,44.417l-61.274,41.846l-24.86-16.977
		c-0.17,2.281-0.27,4.512-0.3,6.703c-0.01,0.42-0.01,0.84-0.01,1.25c0,14.276,1.511,28.561,4.502,42.467
		c1.05,4.872,2.281,9.714,3.691,14.496l16.977-11.595l61.274,41.836l-47.118,32.183c2.161,2.941,4.412,5.822,6.743,8.633
		c4.102,4.962,8.433,9.714,12.985,14.236l53.991-36.874l61.274,41.836l-53.991,36.884c2.131,0.94,4.292,1.841,6.463,2.701
		c9.604,3.811,19.428,6.863,29.421,9.134L256,476.466l44.717,30.542c9.994-2.271,19.818-5.322,29.421-9.134
		c2.171-0.86,4.332-1.761,6.463-2.701l-53.991-36.884l61.274-41.836l53.991,36.874c4.542-4.522,8.873-9.274,12.975-14.226
		c2.331-2.821,4.592-5.702,6.753-8.643l-47.118-32.183l61.274-41.836l16.967,11.585c1.431-4.782,2.661-9.624,3.711-14.496
		c2.981-13.895,4.492-28.181,4.492-42.457C456.928,310.671,456.928,310.261,456.918,309.841z M403.017,219.686l-59.143,40.386
		l-61.264-41.836l59.143-40.396L403.017,219.686z M317.274,278.249L256,320.095l-61.274-41.846L256,236.402L317.274,278.249z
		 M256,119.897l0.46-0.31l58.683,40.076L256,200.058l-58.683-40.076L256,119.897z M109.443,219.996l61.264-41.846l58.683,40.086
		l-61.264,41.836L109.443,219.996z M106.852,338.262l61.264-41.846l61.284,41.846l-61.284,41.846L106.852,338.262z M256,440.122
		l-61.274-41.846L256,356.429l61.274,41.846L256,440.122z M343.874,380.108l-61.264-41.846l61.264-41.846l61.274,41.846
		L343.874,380.108z"/>
</g>
<path style="fill:#805142;" d="M456.918,309.841c-0.03-2.201-0.13-4.442-0.3-6.723l-24.86,16.977l-61.274-41.846l65.045-44.427
	c-0.87-1.831-1.771-3.681-2.701-5.542c-1.811-3.651-3.811-7.493-5.942-11.424c-4.952-9.174-10.544-18.737-16.727-28.641
	l-41.796-28.551l15.436-10.544c-1.711-2.391-3.461-4.792-5.232-7.203c-4.082-5.562-8.313-11.194-12.695-16.897l-24.119,16.476
	l-58.683-40.086l40.886-27.921c-7.053-8.213-13.755-15.836-19.928-22.729L256.46,83.243l-0.46-0.31v36.964l0.46-0.31l58.683,40.076
	L256,200.058v36.344l61.274,41.846L256,320.095v36.334l61.274,41.846L256,440.122v36.344l44.717,30.542
	c9.994-2.271,19.818-5.322,29.421-9.134c2.171-0.86,4.332-1.761,6.463-2.701l-53.991-36.884l61.274-41.836l53.991,36.874
	c4.542-4.522,8.873-9.274,12.975-14.226c2.331-2.821,4.592-5.702,6.753-8.643l-47.118-32.183l61.274-41.836l16.967,11.585
	c1.431-4.782,2.661-9.624,3.711-14.496c2.981-13.895,4.492-28.181,4.492-42.457C456.928,310.671,456.928,310.261,456.918,309.841z
	 M282.61,218.235l59.143-40.396l61.264,41.846l-59.143,40.386L282.61,218.235z M343.874,380.108l-61.264-41.846l61.264-41.846
	l61.274,41.846L343.874,380.108z"/>
<g>
</g>
<g>
</g>
<g>
</g>
<g>
</g>
<g>
</g>
<g>
</g>
<g>
</g>
<g>
</g>
<g>
</g>
<g>
</g>
<g>
</g>
<g>
</g>
<g>
</g>
<g>
</g>
<g>
</g>
</svg>
