<?xml version="1.0" encoding="iso-8859-1"?>
<!-- Generator: Adobe Illustrator 19.0.0, SVG Export Plug-In . SVG Version: 6.00 Build 0)  -->
<svg version="1.1" id="Capa_1" xmlns="http://www.w3.org/2000/svg" xmlns:xlink="http://www.w3.org/1999/xlink" x="0px" y="0px"
	 viewBox="0 0 511.999 511.999" style="enable-background:new 0 0 511.999 511.999;" xml:space="preserve">
<path style="fill:#C8AD92;" d="M374.068,16.717v24.602c0,7.958-6.475,14.433-14.433,14.433h-22.661
	c1.681-4.719,2.604-9.794,2.604-15.083V0h-29.999v40.667c0,8.316-6.767,15.083-15.084,15.083H271V16.717H241V55.75h-23.496
	c-8.317,0-15.084-6.767-15.084-15.083V0h-29.999v40.667c0,5.289,0.923,10.364,2.604,15.083h-22.661
	c-7.958,0-14.433-6.475-14.433-14.433V16.717h-29.999v24.602c0,24.5,19.933,44.432,44.432,44.432h65.141h23.496v39.033h29.999
	V85.749h23.494h65.141c24.501,0,44.432-19.933,44.432-44.432V16.717H374.068z"/>
<path style="fill:#AD866F;" d="M455.75,453.096c-11.166-90.112-32.856-246.903-52.664-284.522
	C375.088,115.401,309.416,94.613,256,121.686c-53.417-27.074-119.089-6.287-147.085,46.888
	c-19.809,37.619-41.498,194.41-52.665,284.522c-1.329,10.727,3.991,20.912,13.554,25.946c3.83,2.017,7.953,3.005,12.043,3.005
	c6.123,0,12.168-2.216,17.02-6.513C143.903,435.648,210.45,375.396,256,328.329c45.55,47.067,112.097,107.319,157.134,147.204
	c4.852,4.297,10.896,6.513,17.02,6.513c4.089,0,8.214-0.988,12.043-3.005C451.759,474.009,457.078,463.823,455.75,453.096z"/>
<path style="fill:#DBB49C;" d="M255.999,100.978c-55.523,0-100.695,45.172-100.695,100.695c0,33.486,37.388,174.064,68.753,286.097
	c4.057,14.492,16.894,24.229,31.942,24.229c15.049,0,27.885-9.737,31.942-24.229c31.364-112.032,68.753-252.61,68.753-286.097
	C356.694,146.15,311.523,100.978,255.999,100.978z"/>
<path style="fill:#BD947D;" d="M287.941,487.77c31.364-112.032,68.753-252.61,68.753-286.097
	c0-55.523-45.171-100.695-100.695-100.695v411.021C271.048,512,283.885,502.262,287.941,487.77z"/>
<g>
</g>
<g>
</g>
<g>
</g>
<g>
</g>
<g>
</g>
<g>
</g>
<g>
</g>
<g>
</g>
<g>
</g>
<g>
</g>
<g>
</g>
<g>
</g>
<g>
</g>
<g>
</g>
<g>
</g>
</svg>
