<?xml version="1.0" encoding="iso-8859-1"?>
<!-- Generator: Adobe Illustrator 19.0.0, SVG Export Plug-In . SVG Version: 6.00 Build 0)  -->
<svg version="1.1" id="Capa_1" xmlns="http://www.w3.org/2000/svg" xmlns:xlink="http://www.w3.org/1999/xlink" x="0px" y="0px"
	 viewBox="0 0 512 512" style="enable-background:new 0 0 512 512;" xml:space="preserve">
<path style="fill:#AD866F;" d="M452.912,250.988c-20.805,78.8-47.158,170.398-110.972,221.965
	c-24.644,19.905-54.457,32.212-85.559,36.891c-49.368,7.438-101.945-4.359-142.155-35.481
	c-125.259-96.896-41.99-167.548-18.305-236.771c14.876-43.479,25.334-89.668,40.1-134.297
	c12.497-37.741,37.251-67.223,71.592-85.269C231.546,5.449,252.281,2.67,256.38,2.06c0.32-0.05,0.54-0.08,0.65-0.11
	c42.949-4.219,71.832-2.809,110.533,16.576C463.859,66.784,481.095,144.155,452.912,250.988z"/>
<path style="fill:#A37862;" d="M452.912,250.988c-20.805,78.8-47.158,170.398-110.972,221.965
	c-24.644,19.905-54.457,32.212-85.559,36.891V2.06c0.32-0.05,0.54-0.08,0.65-0.11c42.949-4.219,71.832-2.809,110.533,16.576
	C463.859,66.784,481.095,144.155,452.912,250.988z"/>
<g>
	<rect x="199.44" y="424.585" style="fill:#8A6746;" width="29.993" height="29.993"/>
	<rect x="111.462" y="339.606" style="fill:#8A6746;" width="29.993" height="29.993"/>
</g>
<rect x="291.418" y="365.9" style="fill:#805142;" width="29.993" height="29.993"/>
<rect x="199.44" y="273.622" style="fill:#8A6746;" width="29.993" height="29.993"/>
<rect x="314.412" y="252.928" style="fill:#805142;" width="29.993" height="29.993"/>
<rect x="175.446" y="174.537" style="fill:#8A6746;" width="29.993" height="29.993"/>
<g>
	<rect x="276.421" y="150.543" style="fill:#805142;" width="29.993" height="29.993"/>
	<rect x="369.898" y="133.047" style="fill:#805142;" width="29.993" height="29.993"/>
</g>
<rect x="226.384" y="61.065" style="fill:#8A6746;" width="29.993" height="29.993"/>
<g>
</g>
<g>
</g>
<g>
</g>
<g>
</g>
<g>
</g>
<g>
</g>
<g>
</g>
<g>
</g>
<g>
</g>
<g>
</g>
<g>
</g>
<g>
</g>
<g>
</g>
<g>
</g>
<g>
</g>
</svg>
